<svg fill="none" height="22" viewBox="0 0 23 22" width="23" xmlns="http://www.w3.org/2000/svg">
    <path
        d="M0.183665 20.2074L10.5144 3.93634L8.70699 1.21256C8.46511 0.84777 8.57216 0.361901 8.94634 0.126186C9.32052 -0.109528 9.82052 -0.00565574 10.0629 0.359748L11.499 2.52636L12.937 0.359438C13.179 -0.00535059 13.6789 -0.109528 14.0524 0.126186C14.4268 0.361901 14.5336 0.848387 14.2928 1.21287L12.4861 3.93695L22.8163 20.208C23.0489 20.5697 23.0615 21.0227 22.8492 21.3964C22.6368 21.7701 22.233 21.9991 21.7951 21.9991H17.2226C16.8102 21.9991 16.4254 21.7938 16.2023 21.4557L12.3174 15.5478C12.1388 15.2765 11.8308 15.1126 11.4999 15.1126C11.1697 15.1126 10.861 15.2764 10.6825 15.5484L6.79973 21.4557C6.57753 21.7947 6.19277 22 5.77919 22H1.20521C0.766892 22 0.362917 21.7713 0.150834 21.3967C-0.0612493 21.0224 -0.0491143 20.5691 0.183665 20.2074Z"
        fill="#1780E2" />
</svg>
