<svg fill="none" height="21" viewBox="0 0 20 21" width="20" xmlns="http://www.w3.org/2000/svg">
    <path
        d="M6.79235 19.0514V15.9484C6.79235 15.1564 7.44447 14.5142 8.24911 14.5142H11.1923C11.5782 14.5142 11.9488 14.6653 12.2221 14.9343C12.4955 15.2032 12.649 15.5681 12.649 15.9484V19.0514C12.647 19.3807 12.778 19.6974 13.0135 19.9312C13.25 20.1649 13.5704 20.2963 13.9051 20.2963H15.9127C16.8504 20.2986 17.7502 19.9338 18.4136 19.2823C19.078 18.6308 19.4506 17.7461 19.4506 16.8234V7.9834C19.4506 7.23812 19.1148 6.53118 18.5344 6.05303L11.7052 0.685884C10.5177 -0.255164 8.81522 -0.22478 7.66252 0.758047L0.989929 6.05303C0.381841 6.51709 0.0184269 7.22613 0 7.9834V16.8144C0 18.7374 1.58368 20.2963 3.53796 20.2963H5.4994C6.1945 20.2963 6.7596 19.7444 6.76472 19.0604L6.79235 19.0514Z"
        fill="#1780E2" />
</svg>
