<svg fill="none" height="19" viewBox="0 0 26 19" width="26" xmlns="http://www.w3.org/2000/svg">
    <path clip-rule="evenodd"
        d="M17.9143 5.02651C17.9143 7.81672 15.7006 10.0541 12.9397 10.0541C10.1789 10.0541 7.96514 7.81672 7.96514 5.02651C7.96514 2.2352 10.1789 0 12.9397 0C15.7006 0 17.9143 2.2352 17.9143 5.02651ZM12.9397 19C8.88472 19 5.42228 18.354 5.42228 15.7702C5.42228 13.1853 8.86249 12.5158 12.9397 12.5158C16.9948 12.5158 20.4572 13.1618 20.4572 15.7467C20.4572 18.3305 17.017 19 12.9397 19ZM20.0402 5.1172C20.0402 6.5396 19.6179 7.86469 18.8772 8.96622C18.8011 9.07963 18.8688 9.23257 19.0031 9.25609C19.1883 9.28815 19.3799 9.30632 19.5746 9.31166C21.5164 9.36296 23.2592 8.09994 23.7407 6.19844C24.4539 3.37396 22.3597 0.838256 19.6931 0.838256C19.4032 0.838256 19.1259 0.869262 18.856 0.924873C18.819 0.933434 18.7799 0.950546 18.7587 0.983701C18.7333 1.02434 18.7524 1.07888 18.7778 1.11417C19.5788 2.24889 20.0402 3.63278 20.0402 5.1172ZM23.256 11.2962C24.5609 11.5539 25.419 12.0801 25.7746 12.8447C26.0751 13.4725 26.0751 14.2008 25.7746 14.8276C25.2306 16.0136 23.4773 16.3944 22.7957 16.4927C22.655 16.5141 22.5417 16.3912 22.5566 16.2489C22.9047 12.9624 20.1354 11.4042 19.419 11.0459C19.3883 11.0299 19.382 11.0053 19.3851 10.9903C19.3872 10.9796 19.4 10.9625 19.4233 10.9593C20.9735 10.9305 22.6402 11.1443 23.256 11.2962ZM6.42567 9.31154C6.62037 9.3062 6.81086 9.2891 6.9971 9.25597C7.13148 9.23246 7.19921 9.07951 7.12302 8.9661C6.38228 7.86457 5.96006 6.53949 5.96006 5.11709C5.96006 3.63267 6.42144 2.24878 7.2225 1.11406C7.24789 1.07877 7.26588 1.02423 7.24154 0.983594C7.22038 0.951508 7.18016 0.933327 7.14419 0.924766C6.87328 0.869155 6.59604 0.838149 6.30609 0.838149C3.63942 0.838149 1.54524 3.37385 2.25953 6.19833C2.74101 8.09982 4.48387 9.36284 6.42567 9.31154ZM6.61456 10.9897C6.61773 11.0058 6.61138 11.0293 6.58175 11.0464C5.86429 11.4046 3.09498 12.9629 3.44313 16.2482C3.45794 16.3915 3.34577 16.5135 3.20503 16.4932C2.52355 16.3947 0.770108 16.014 0.226188 14.828C-0.0753961 14.2002 -0.0753961 13.473 0.226188 12.8452C0.58175 12.0806 1.43889 11.5544 2.74366 11.2955C3.36059 11.1447 5.0262 10.9308 6.57752 10.9597C6.6008 10.9629 6.61244 10.9801 6.61456 10.9897Z"
        fill="#1780E2" fill-rule="evenodd" />
</svg>
