<svg fill="none" height="21" viewBox="0 0 18 21" width="18" xmlns="http://www.w3.org/2000/svg">
    <path clip-rule="evenodd"
        d="M16.0961 6.89702C16.0961 8.17159 16.443 8.92276 17.2066 9.7885C17.7843 10.4263 17.9692 11.245 17.9692 12.1331C17.9692 13.0203 17.6694 13.8625 17.0677 14.5463C16.281 15.366 15.1716 15.8893 14.0382 15.9803C12.397 16.1162 10.7548 16.2306 9.08959 16.2306C7.4244 16.2306 5.78324 16.1622 4.14208 15.9803C3.00757 15.8893 1.89815 15.366 1.11256 14.5463C0.510838 13.8625 0.209961 13.0203 0.209961 12.1331C0.209961 11.245 0.395922 10.4263 0.972576 9.7885C1.76025 8.92276 2.08409 8.17159 2.08409 6.89702V6.46467C2.08409 4.7578 2.52179 3.64168 3.42438 2.54907C4.76573 0.955651 6.91564 0 9.04362 0H9.13661C11.3095 0 13.5294 1.00164 14.8478 2.66354C15.7033 3.73367 16.0961 4.80276 16.0961 6.46467V6.89702ZM6.03291 18.3284C6.03291 17.8174 6.51556 17.5833 6.96163 17.4831C7.48396 17.3759 10.666 17.3759 11.1883 17.4831C11.6354 17.5833 12.1181 17.8174 12.1181 18.3284C12.0919 18.8149 11.7984 19.2463 11.392 19.5202C10.8655 19.9188 10.2481 20.1712 9.60252 20.2622C9.24524 20.3072 8.89424 20.3082 8.5495 20.2622C7.90286 20.1712 7.28443 19.9188 6.75896 19.5191C6.35259 19.2463 6.05903 18.8149 6.03291 18.3284Z"
        fill="#CFCFCF" fill-rule="evenodd" />
</svg>
