<svg fill="none" height="22" viewBox="0 0 28 22" width="28" xmlns="http://www.w3.org/2000/svg">
    <path
        d="M27.2869 15.4495L24.4442 9.76416C20.7981 10.1349 19.5622 10.8765 19.1297 11.4327C19.0679 11.5563 18.8207 11.8653 19.0679 12.6068C19.6241 14.5225 19.0679 15.8203 18.5117 16.5619C17.1522 18.4158 14.0623 19.2191 8.62413 19.2191C6.95561 19.2191 5.78146 19.5899 5.41067 20.1461C5.03989 20.7023 5.28708 21.691 5.41067 22H20.0566C20.6128 22 21.1072 21.691 21.3544 21.2585C21.6634 20.8259 21.6634 20.2079 21.4161 19.7753L20.4274 17.736H25.8038C26.3599 17.736 26.8543 17.427 27.1015 16.9944C27.534 16.5001 27.534 15.9439 27.2869 15.4495Z"
        fill="#1780E2" />
    <path
        d="M16.1629 14.7695C16.2246 14.6459 16.4718 14.3369 16.2247 13.4718C15.7303 11.7415 16.2246 10.5055 16.719 9.76397C17.7077 8.28083 19.6852 7.41567 23.0841 6.92129L21.6628 4.01682C21.4156 3.46065 20.8594 3.15166 20.2415 3.15166C19.6235 3.15166 19.1291 3.46065 18.8201 4.01682L16.2864 9.146L12.2696 0.865162C12.0224 0.308986 11.4663 0 10.8483 0C10.2303 0 9.73594 0.308986 9.42695 0.865162L0.15736 19.7133C-0.0898286 20.2077 -0.0280314 20.7638 0.219158 21.2582C0.528144 21.6908 1.02252 21.9998 1.5169 21.9998H2.38206C2.19667 21.0728 2.13487 19.7751 2.93824 18.5392C3.92699 16.9942 5.84271 16.1909 8.68538 16.1909C14.2471 16.1908 15.7921 15.3257 16.1629 14.7695Z"
        fill="#1780E2" />
</svg>
