<svg fill="none" height="21" viewBox="0 0 19 21" width="19" xmlns="http://www.w3.org/2000/svg">
    <path clip-rule="evenodd"
        d="M5.19684 0H13.4657C16.5134 0 18.2104 1.80637 18.2104 4.90156V15.3846C18.2104 18.5305 16.5134 20.2963 13.4657 20.2963H5.19684C2.1975 20.2963 0.451172 18.5305 0.451172 15.3846V4.90156C0.451172 1.80637 2.1975 0 5.19684 0ZM5.46323 4.72904V4.71889H8.41225C8.83749 4.71889 9.18281 5.07408 9.18281 5.50943C9.18281 5.95696 8.83749 6.31215 8.41225 6.31215H5.46323C5.03799 6.31215 4.69366 5.95697 4.69366 5.5206C4.69366 5.08422 5.03799 4.72904 5.46323 4.72904ZM5.46323 10.8991H13.1984C13.6226 10.8991 13.9679 10.5439 13.9679 10.1076C13.9679 9.67118 13.6226 9.31499 13.1984 9.31499H5.46323C5.03799 9.31499 4.69366 9.67118 4.69366 10.1076C4.69366 10.5439 5.03799 10.8991 5.46323 10.8991ZM5.46323 15.5368H13.1984C13.592 15.4962 13.889 15.1502 13.889 14.7453C13.889 14.3292 13.592 13.9841 13.1984 13.9436H5.46323C5.16724 13.9131 4.88112 14.0552 4.72326 14.319C4.5654 14.5727 4.5654 14.9076 4.72326 15.1715C4.88112 15.4252 5.16724 15.5774 5.46323 15.5368Z"
        fill="#CFCFCF" fill-rule="evenodd" />
</svg>
