<svg fill="none" height="25" viewBox="0 0 25 25" width="25" xmlns="http://www.w3.org/2000/svg">
    <path clip-rule="evenodd"
        d="M22.9991 8.93378L23.8993 9.83399C24.6121 10.5342 24.9997 11.4844 24.9997 12.4846C25.0122 13.4848 24.6246 14.4363 23.9243 15.1477C23.9161 15.1569 23.9077 15.165 23.8993 15.173C23.8952 15.177 23.8911 15.1811 23.8868 15.1852L22.9991 16.0729C22.649 16.423 22.4488 16.8981 22.4488 17.3995V18.686C22.4488 20.7615 20.7607 22.4507 18.6849 22.4507H17.3969C16.8968 22.4507 16.4217 22.6495 16.0716 22.9995L15.1712 23.8997C14.4334 24.6387 13.4706 25 12.5077 25C11.5448 25 10.5821 24.6387 9.84424 23.9135L8.9314 22.9995C8.58127 22.6495 8.1061 22.4507 7.60592 22.4507H6.31795C4.24219 22.4507 2.55407 20.7615 2.55407 18.686V17.3995C2.55407 16.8981 2.35401 16.423 2.00388 16.0604L1.10354 15.1727C-0.359487 13.7111 -0.371987 11.3218 1.09104 9.84774L2.00388 8.93378C2.35401 8.5837 2.55407 8.10859 2.55407 7.59597V6.32068C2.55407 4.2452 4.24219 2.55856 6.31795 2.55856H7.60592C8.1061 2.55856 8.58127 2.35727 8.9314 2.00719L9.83172 1.10698C11.2948 -0.367112 13.6832 -0.367112 15.1587 1.09573L16.0716 2.00719C16.4217 2.35727 16.8968 2.55856 17.3969 2.55856H18.6849C20.7607 2.55856 22.4488 4.2452 22.4488 6.32068V7.60973C22.4488 8.10859 22.649 8.5837 22.9991 8.93378ZM9.28154 16.8106C9.58164 16.8106 9.85674 16.6981 10.0568 16.4855L16.4842 10.0603C16.9093 9.6352 16.9093 8.93378 16.4842 8.50869C16.0591 8.08484 15.3713 8.08484 14.9461 8.50869L8.51875 14.9352C8.0936 15.3603 8.0936 16.0604 8.51875 16.4855C8.71882 16.6981 8.99392 16.8106 9.28154 16.8106ZM14.6209 15.7104C14.6209 16.323 15.1087 16.8106 15.7214 16.8106C16.3216 16.8106 16.8093 16.323 16.8093 15.7104C16.8093 15.1115 16.3216 14.6226 15.7214 14.6226C15.1087 14.6226 14.6209 15.1115 14.6209 15.7104ZM9.29403 8.19611C9.89425 8.19611 10.3819 8.68373 10.3819 9.28386C10.3819 9.89776 9.89425 10.3841 9.29403 10.3841C8.69382 10.3841 8.19363 9.89776 8.19363 9.28386C8.19363 8.68373 8.69382 8.19611 9.29403 8.19611Z"
        fill="#1780E2" fill-rule="evenodd" />
</svg>
